<svg width="116" height="116" viewBox="0 0 116 116" fill="none" xmlns="http://www.w3.org/2000/svg">
<path d="M115.385 96.8596C97.6878 91.5733 79.8754 86.5024 62.0199 81.6327C64.2212 76.0016 66.1636 70.2556 68.0341 64.4664C73.2713 66.7361 78.7532 68.1439 83.8609 70.8876C89.4003 73.8612 94.4793 77.5099 99.1266 81.7332C99.7165 82.2647 100.637 81.9343 100.681 81.1299C102.191 57.4419 103.601 29.2865 88.9111 8.97429C88.9255 8.8881 88.9111 8.78754 88.8392 8.70135C88.5946 8.44278 88.3644 8.16985 88.1198 7.89691C88.019 7.76763 87.9327 7.65271 87.8464 7.52342C87.8032 7.46596 87.7313 7.42287 87.6737 7.39414C87.6737 7.37977 87.645 7.36541 87.6306 7.35104C87.314 7.02064 87.0119 6.63279 86.6234 6.35985C87.1702 4.56422 87.7169 2.75423 88.2493 0.958597C88.3068 0.771851 88.2636 0.613836 88.1917 0.498915C88.1054 0.168519 87.832 -0.104417 87.4579 0.0392338C57.7035 11.3445 32.7834 36.1242 18.309 64.0499C17.9781 64.6819 18.3522 65.3571 19.0572 65.4145C33.9344 66.6787 48.5239 69.092 63.1997 71.649C62.2069 74.8236 61.2717 77.9983 60.4084 81.1874C40.7687 75.8436 21.0571 70.744 1.31675 65.9173C1.31675 65.8599 1.31675 65.788 1.31675 65.7306C1.28797 65.0267 0.295198 65.0267 0.223258 65.7162C0.223258 65.7593 0.223258 65.8024 0.223258 65.8455C-0.021339 66.0322 -0.0788911 66.4201 0.165705 66.6356C-0.280324 72.3241 0.20887 78.1132 1.21603 83.73C2.22319 89.3754 3.59006 91.1423 9.01435 92.7225C22.3664 96.5867 35.7617 100.336 49.1426 104.143C62.5091 107.949 75.818 112.072 89.2564 115.592C93.5441 116.712 96.1483 115.462 99.4431 112.632C104.709 108.093 109.86 103.424 115.04 98.7845C115.112 98.7271 115.169 98.6553 115.212 98.5834C116.076 98.5116 116.363 97.1613 115.385 96.874V96.8596ZM86.2493 7.53779C86.4651 7.71017 86.681 7.88255 86.8968 8.04056C87.0119 8.12675 87.1126 8.21294 87.2277 8.29913C93.17 18.5414 96.9972 29.3008 98.6374 41.0514C100.378 53.6927 99.8028 66.5063 98.9971 79.205C94.6375 75.4126 89.9183 72.0656 84.8105 69.3362C79.8754 66.693 74.1058 63.8057 68.4945 63.0443C70.7822 55.8331 72.9548 48.5787 75.3 41.4537C78.9977 30.1627 82.7674 18.8862 86.2781 7.53779H86.2493ZM20.496 63.7482C27.7188 50.1445 37.1286 37.8049 48.3944 27.2897C59.8473 16.6165 72.7965 8.62953 86.7529 1.74867C82.0912 14.7203 77.8899 27.8643 73.5735 40.9509C70.3937 50.5898 66.8399 60.2288 63.7464 69.9539C49.5742 66.7936 34.956 65.0123 20.5104 63.7482H20.496ZM100.422 109.343C98.4935 111.052 96.1339 113.782 93.4865 114.284C90.8103 114.802 87.2421 113.164 84.7386 112.446C73.5159 109.257 62.2789 106.082 51.0562 102.893C40.0637 99.7614 29.0857 96.6441 18.0932 93.5126C15.23 92.6938 12.3524 91.8893 9.48915 91.0705C7.10074 90.381 4.89937 90.0793 3.662 87.1632C3.18719 86.0571 3.04331 84.477 2.82749 83.3134C1.82033 77.8978 1.54696 72.4821 1.35991 67.0091C38.5674 77.5099 75.8324 87.8815 113.126 98.0663C108.882 101.801 104.652 105.579 100.422 109.328V109.343Z" fill="#46B3D9"/>
</svg>
