<svg width="171" height="109" viewBox="0 0 171 109" fill="none" xmlns="http://www.w3.org/2000/svg">
<path d="M163.663 76.4435C171.956 71.3494 173.454 58.8721 164.842 52.9049C160.611 49.9701 155.051 49.3095 150.391 51.6035C145.663 53.9215 142.603 58.3737 139.991 62.831C137.897 56.5985 132.393 51.7045 125.619 51.1556C124.968 51.1102 124.327 51.114 123.684 51.1336C122.967 31.0175 107.269 11.9048 89.0793 4.59139C68.4908 -3.69502 44.2355 0.81416 28.4271 16.4546C20.6238 24.1669 15.2832 33.9317 13.004 44.6203C12.8935 44.6071 12.7931 44.6432 12.7307 44.7638C12.2095 45.6458 12.2474 46.6743 12.5354 47.6204C10.1823 47.3408 7.82294 47.6524 5.62228 49.0548C2.14046 51.2649 0.0753138 55.4352 0.406412 59.5224C1.15017 68.7623 10.0582 72.5088 18.0008 71.0368C14.8213 75.5547 16.1054 82.5389 21.4975 85.5476C29.6669 90.1183 38.136 84.4851 41.4777 76.8506C42.7323 77.4796 43.9729 78.0911 45.2275 78.7201C45.7558 78.9909 46.1956 78.6592 46.3429 78.2287C53.7202 79.7614 59.3057 70.3617 53.4306 64.5437C60.5135 61.5456 62.8654 52.4016 56.9373 46.6254C53.2201 42.9998 49.474 42.9866 46.1488 44.6873C51.7892 34.2862 65.3427 23.0655 77.2137 28.428C83.172 31.12 87.217 36.7044 89.3179 42.7458C90.3905 45.8491 90.9984 49.0892 91.4131 52.3383C91.5937 53.7837 91.7269 55.2235 91.8424 56.6771C91.8643 57.0317 92.2678 60.3755 92.6282 62.1942C92.5334 62.183 92.4387 62.1717 92.3402 62.192C92.2575 62.2142 92.1589 62.2345 92.0762 62.2566C91.7612 62.3472 91.4134 62.5779 91.4 62.9602L91.4024 63.3445C91.3973 63.7919 91.5689 64.1003 91.9626 64.291C91.9942 64.2948 92.022 64.3301 92.0536 64.3339C91.9634 64.4191 91.8732 64.5044 91.7811 64.6054C88.1021 68.744 88.1793 75.7768 92.521 79.2686C84.8139 84.6884 80.377 95.7446 88.1289 103.289C96.111 111.054 105.915 103.483 111.892 96.9938C114.137 103.98 120.783 110.05 128.567 108.559C134.73 107.372 139.125 101.526 138.734 95.512C147 101.966 159.203 105.208 167.309 96.5718C173.141 90.3532 171.368 79.6631 163.639 76.5048L163.663 76.4435ZM13.5259 46.6982C19.3526 19.904 43.815 0.444205 71.4621 2.43379C84.8327 3.39876 97.4578 9.15489 106.714 18.8625C115.546 28.1036 119.662 39.0242 121.949 51.3114C119.303 51.7489 116.834 52.8474 114.721 54.4522C114.885 43.6403 110.076 31.2774 103.389 22.995C96.242 14.1301 86.3565 9.57954 75.0817 8.76764C54.2788 7.27142 29.8142 16.5075 25.094 38.8414C21.7648 40.8456 20.1579 45.7424 19.4049 49.6527C17.437 48.8269 15.3631 48.0845 13.2916 47.7263C13.2546 47.4979 13.2335 47.2714 13.2263 47.0626C13.3601 47.0145 13.4857 46.9014 13.524 46.714L13.5259 46.6982ZM76.9219 17.9459C60.1751 15.8757 40.9715 23.8331 33.2538 39.3151C32.4005 38.8137 31.4551 38.4134 30.4455 38.1494C28.8432 37.751 27.4569 37.8263 26.2523 38.2591C32.4529 17.349 55.2306 8.69646 75.6568 10.5319C86.6545 11.5189 96.0483 16.299 102.747 25.1587C105.78 29.1509 108.057 33.7093 109.671 38.4608C111.573 44.0147 111.944 49.6584 113.275 55.3043C113.295 55.4027 113.349 55.4891 113.402 55.5755C111.296 57.533 109.639 60.0239 108.717 62.7942C108.711 62.8416 108.707 62.8731 108.702 62.9205C107.162 62.1295 105.472 61.5287 103.736 61.1784C107.382 43.4366 96.1778 20.3302 76.9219 17.9459ZM53.8194 46.4468C61.2683 50.6119 59.4854 61.1675 51.5856 63.4925C51.0047 63.6635 50.9982 64.5266 51.4262 64.8335C58.5803 70.1315 51.6133 80.375 43.9128 76.036C43.8673 76.0146 43.8357 76.0109 43.7884 76.0052C42.9712 75.6041 42.1401 75.1854 41.3229 74.7843C40.8994 74.574 40.3231 74.8415 40.1758 75.2719C37.8102 81.5665 31.6629 87.2036 24.4583 84.8915C17.732 82.7322 15.3086 73.3407 21.9758 69.7973C22.2631 69.6714 22.5522 69.5298 22.8255 69.3862C23.8322 68.8659 23.1835 67.3169 22.1211 67.7666C21.8181 67.8906 21.5447 68.0341 21.2714 68.1776C14.1382 71.3297 4.46716 69.5565 2.44253 60.8523C1.52227 56.8711 3.12193 52.7094 6.64737 50.5365C10.898 47.9218 15.6111 49.9058 19.7707 51.6961C20.3028 51.9353 20.8783 51.5397 20.9755 50.9913C21.3721 48.4626 21.7586 45.8846 23.0663 43.6402C25.2192 39.9442 29.4052 38.6818 33.1132 41.4423C36.9696 44.3005 38.4305 49.2578 37.5338 53.839C37.3712 54.6677 38.6667 55.2216 39.1237 54.4759C40.5803 52.0572 42.3959 49.3131 44.6333 47.4671C44.716 47.4449 44.8043 47.3754 44.8629 47.2864C47.3541 45.3265 50.3336 44.5127 53.8473 46.4822L53.8194 46.4468ZM91.444 43.3185C89.3049 36.5206 84.9848 30.1515 78.3905 27.016C65.1268 20.704 49.0129 33.5243 44.3071 45.7644C42.5181 47.0717 40.8857 48.8136 39.5124 50.6663C39.3347 46.5014 37.4363 42.26 34.0876 39.8462C42.2674 25.731 59.2148 18.1615 75.2906 19.5439C85.2794 20.395 92.9155 26.7582 97.5946 35.3618C101.985 43.4351 102.848 51.9373 102.038 60.9126C99.2664 60.6472 96.5056 61.1031 94.1553 62.5517C94.6351 60.4008 93.8411 57.3786 93.6702 55.5824C93.2973 51.4423 92.7034 47.2759 91.4458 43.3027L91.444 43.3185ZM162.69 97.8309C154.162 102.753 144.603 98.4173 137.969 92.3812C137.219 91.6841 136.312 92.7123 136.573 93.4793C138.591 99.8148 133.295 106.513 126.834 106.833C119.97 107.185 114.607 101.236 113.256 94.9481C113.093 94.1608 112.159 93.9377 111.64 94.532C106.684 100.247 97.8824 108.816 90.0455 102.525C81.6832 95.8038 87.3023 84.5042 94.7009 79.9277C95.1509 79.6452 95.1592 78.7662 94.694 78.5029C89.9705 75.7977 89.7946 69.0571 93.4406 65.3306C97.8531 60.8153 105.146 62.1139 110.058 64.9855C110.642 65.3269 111.298 64.5249 110.721 64.1204C110.573 64.0228 110.408 63.9232 110.26 63.8256C110.334 63.7384 110.411 63.6355 110.459 63.4973C112.603 57.3203 118.676 52.5704 125.436 53.1017C132.196 53.633 137.53 59.0187 138.71 65.5266C138.89 66.572 140.141 66.5606 140.605 65.7518C145.06 57.9137 152.238 48.3192 162.411 53.6879C171.83 58.663 170.204 71.9411 160.729 75.7909C159.82 76.1629 160.097 77.4757 160.993 77.6142C165.438 78.3504 168.525 82.1571 169.061 86.5406C169.643 91.3456 166.749 95.4814 162.726 97.8031L162.69 97.8309Z" fill="#9461FF"/>
</svg>
