<svg width="229" height="167" viewBox="0 0 229 167" fill="none" xmlns="http://www.w3.org/2000/svg">
<path d="M82.9031 83.2629H0V166.166H82.9031V83.2629Z" fill="#46B3D9"/>
<path d="M72.2837 93.8823H10.6124V155.554H72.2837V93.8823Z" fill="#75C1E4"/>
<path d="M120.849 83.2629H82.9031V166.166H120.849V83.2629Z" fill="#0096D9"/>
<path d="M56.8907 132.766C56.8907 134.173 56.635 135.387 56.1164 136.41C55.5979 137.426 54.9089 138.292 54.0423 139.01C53.1757 139.72 52.1812 140.303 51.0518 140.75C49.9223 141.198 48.7503 141.553 47.5285 141.809C46.3067 142.064 45.0778 142.235 43.849 142.32C42.6201 142.405 41.4693 142.448 40.3967 142.448C39.3241 142.448 38.2515 142.412 37.1292 142.334C35.9998 142.256 34.8774 142.128 33.7551 141.936C32.6328 141.752 31.5318 141.503 30.445 141.184C29.3581 140.871 28.3353 140.473 27.3621 139.997L27.3124 107.208C28.2642 106.818 29.2729 106.462 30.3384 106.15C31.411 105.837 32.4978 105.574 33.613 105.361C34.7212 105.148 35.8293 104.985 36.9374 104.878C38.0384 104.772 39.111 104.715 40.1481 104.715C41.3557 104.715 42.5704 104.793 43.7992 104.942C45.0281 105.091 46.2144 105.347 47.3509 105.702C48.4875 106.057 49.5458 106.519 50.5332 107.087C51.5206 107.656 52.3801 108.359 53.1188 109.19C53.8576 110.021 54.4329 110.987 54.852 112.095C55.264 113.196 55.4771 114.475 55.4771 115.917C55.4771 116.869 55.3422 117.757 55.0722 118.588C54.8023 119.419 54.4116 120.165 53.9002 120.825C53.3888 121.486 52.7708 122.054 52.0391 122.516C51.3075 122.985 50.4835 123.326 49.5672 123.546C50.6682 123.837 51.6768 124.256 52.5861 124.817C53.4953 125.379 54.2625 126.053 54.9018 126.856C55.5411 127.652 56.0312 128.554 56.3793 129.555C56.7273 130.557 56.9049 131.63 56.9049 132.766H56.8907ZM40.347 126.558C39.8569 126.558 39.381 126.607 38.9192 126.714L38.8198 132.517C39.0755 132.567 39.3241 132.617 39.5728 132.66C39.8214 132.702 40.0629 132.723 40.2973 132.723C40.6525 132.723 41.0431 132.688 41.4693 132.61C41.8955 132.532 42.2933 132.382 42.6627 132.155C43.0392 131.928 43.3446 131.615 43.5932 131.225C43.8419 130.834 43.9626 130.315 43.9626 129.669C43.9626 129.023 43.8419 128.497 43.5932 128.092C43.3446 127.687 43.0463 127.368 42.6911 127.14C42.336 126.913 41.9453 126.757 41.5191 126.686C41.0929 126.607 40.7022 126.572 40.347 126.572V126.558ZM43.9626 118.261C43.9626 117.771 43.8632 117.352 43.6572 117.004C43.4512 116.656 43.2026 116.372 42.9042 116.151C42.6059 115.931 42.2862 115.768 41.9382 115.668C41.5901 115.569 41.2847 115.519 41.0076 115.519C40.6667 115.519 40.3399 115.569 40.0132 115.668C39.6935 115.768 39.3739 115.889 39.0684 116.023L38.9192 121.678C39.3099 121.678 39.793 121.642 40.3683 121.578C40.9437 121.514 41.5049 121.365 42.0376 121.131C42.5704 120.903 43.025 120.563 43.4015 120.115C43.7779 119.668 43.9626 119.05 43.9626 118.268V118.261Z" fill="white"/>
<path d="M129.693 0.359863H46.7897V83.263H129.693V0.359863Z" fill="#FF7061"/>
<path d="M119.073 10.9723H57.4021V72.6435H119.073V10.9723Z" fill="#FF9A92"/>
<path d="M167.639 0.359863H129.693V83.263H167.639V0.359863Z" fill="#EA4336"/>
<path d="M105.321 56.7391L92.6915 58.3658L91.1643 52.6121H85.3608L84.0893 58.3658L71.1044 57.0943L81.2338 23.1829L95.3908 22.4726L105.321 56.7391ZM90.2479 44.8268L88.3158 35.969L86.4334 44.8268H90.255H90.2479Z" fill="white"/>
<path d="M190.114 83.2629H107.211V166.166H190.114V83.2629Z" fill="#F2C636"/>
<path d="M179.501 93.8823H117.83V155.554H179.501V93.8823Z" fill="#EFDA8C"/>
<path d="M228.06 83.2629H190.114V166.166H228.06V83.2629Z" fill="#EAA831"/>
<path d="M160.891 107.059L159.974 117.799C159.484 117.664 159.001 117.572 158.525 117.515C158.049 117.466 157.566 117.437 157.076 117.437C155.869 117.437 154.718 117.586 153.624 117.892C152.53 118.197 151.564 118.666 150.719 119.291C149.881 119.916 149.206 120.712 148.708 121.671C148.204 122.63 147.956 123.766 147.956 125.066C147.956 126.018 148.098 126.842 148.375 127.552C148.652 128.255 149.057 128.838 149.568 129.307C150.087 129.776 150.712 130.124 151.45 130.365C152.189 130.607 153.006 130.72 153.908 130.72C154.533 130.72 155.18 130.656 155.84 130.529C156.501 130.401 157.161 130.23 157.822 130.003C158.483 129.783 159.122 129.527 159.733 129.243C160.344 128.952 160.912 128.646 161.438 128.327L161.033 140.289C160.372 140.63 159.662 140.928 158.895 141.191C158.128 141.454 157.346 141.681 156.536 141.88C155.727 142.079 154.924 142.221 154.114 142.327C153.311 142.427 152.537 142.476 151.813 142.476C149.405 142.476 147.21 142.029 145.235 141.127C143.26 140.225 141.562 139.003 140.142 137.447C138.721 135.892 137.627 134.094 136.846 132.034C136.065 129.982 135.674 127.794 135.674 125.464C135.674 122.679 136.065 120.087 136.86 117.672C137.656 115.256 138.814 113.168 140.348 111.399C141.882 109.623 143.786 108.231 146.052 107.222C148.318 106.214 150.918 105.709 153.858 105.709C155.03 105.709 156.217 105.802 157.424 105.994C158.632 106.178 159.783 106.526 160.884 107.038L160.891 107.059Z" fill="white"/>
</svg>
