<svg width="183" height="129" viewBox="0 0 183 129" fill="none" xmlns="http://www.w3.org/2000/svg">
<path d="M1.97786 6.4848C0.82308 7.24166 0.500499 8.79136 1.25736 9.94614C2.01422 11.1009 3.56392 11.4235 4.7187 10.6666L1.97786 6.4848ZM54.9466 20.6595L52.5652 21.4203L54.9466 20.6595ZM25.3228 61.6756L23.649 63.5326L25.3228 61.6756ZM63.3312 18.7175L63.3514 16.2176L63.3312 18.7175ZM106.731 80.7699L104.582 79.4918L106.731 80.7699ZM67.5244 100.392L70.009 100.669L67.5244 100.392ZM140.376 60.7489L139.401 63.0507L140.376 60.7489ZM176.278 126.072C176.044 127.432 176.956 128.726 178.317 128.961C179.677 129.195 180.971 128.283 181.206 126.922L176.278 126.072ZM10.929 7.94011C12.246 7.52553 12.9776 6.1218 12.563 4.8048C12.1484 3.48781 10.7447 2.75626 9.42769 3.17084L10.929 7.94011ZM24.882 0.652348C23.5017 0.686171 22.4101 1.83254 22.4439 3.21284C22.4778 4.59314 23.6241 5.68467 25.0044 5.65085L24.882 0.652348ZM38.8748 7.61917C40.1758 8.08151 41.6052 7.40165 42.0676 6.10065C42.5299 4.79965 41.8501 3.37017 40.5491 2.90783L38.8748 7.61917ZM53.677 12.5044C52.8771 11.379 51.3163 11.1151 50.1909 11.915C49.0655 12.7149 48.8016 14.2757 49.6015 15.4011L53.677 12.5044ZM53.2277 27.6053C53.1362 28.983 54.1788 30.174 55.5565 30.2655C56.9342 30.357 58.1252 29.3143 58.2167 27.9367L53.2277 27.6053ZM53.7871 42.5895C54.4163 41.3604 53.93 39.8541 52.7009 39.2249C51.4719 38.5957 49.9655 39.082 49.3364 40.3111L53.7871 42.5895ZM41.5428 51.5961C40.6199 52.623 40.7043 54.2037 41.7312 55.1266C42.7581 56.0495 44.3388 55.9651 45.2617 54.9382L41.5428 51.5961ZM33.0591 64.3548C34.3391 63.8371 34.9569 62.3797 34.4391 61.0998C33.9214 59.8198 32.464 59.202 31.1841 59.7197L33.0591 64.3548ZM25.8227 56.4488C25.7155 55.0723 24.5127 54.0432 23.1362 54.1504C21.7596 54.2576 20.7306 55.4604 20.8378 56.8369L25.8227 56.4488ZM22.8882 44.9527C22.4093 46.2477 23.0709 47.6857 24.3659 48.1646C25.6609 48.6436 27.0989 47.982 27.5778 46.687L22.8882 44.9527ZM32.4417 37.4846C33.2348 36.3544 32.9615 34.7953 31.8313 34.0022C30.7011 33.2091 29.1419 33.4824 28.3489 34.6126L32.4417 37.4846ZM36.2134 25.9709C35.1594 26.8628 35.0279 28.4402 35.9198 29.4942C36.8117 30.5482 38.3891 30.6796 39.4431 29.7878L36.2134 25.9709ZM48.1857 24.2783C49.4476 23.718 50.0164 22.2408 49.4561 20.9788C48.8958 19.7169 47.4186 19.1482 46.1566 19.7085L48.1857 24.2783ZM57.4861 16.56C56.1164 16.7343 55.1474 17.9859 55.3216 19.3556C55.4959 20.7253 56.7475 21.6943 58.1172 21.5201L57.4861 16.56ZM68.8516 21.5087C70.2256 21.6443 71.4494 20.6404 71.5851 19.2664C71.7207 17.8924 70.7168 16.6685 69.3428 16.5329L68.8516 21.5087ZM81.1111 18.8971C79.7934 18.4847 78.3909 19.2185 77.9785 20.5362C77.5661 21.8539 78.3 23.2564 79.6177 23.6688L81.1111 18.8971ZM89.5896 28.1052C90.7749 28.8133 92.3098 28.4265 93.0179 27.2412C93.726 26.0559 93.3392 24.521 92.1539 23.8129L89.5896 28.1052ZM101.695 31.3018C100.728 30.3162 99.1453 30.3009 98.1596 31.2678C97.174 32.2346 97.1587 33.8175 98.1256 34.8031L101.695 31.3018ZM104.601 43.4651C105.271 44.6725 106.793 45.1085 108 44.4389C109.208 43.7693 109.644 42.2476 108.974 41.0402L104.601 43.4651ZM113.347 52.4111C113.038 51.0655 111.696 50.2254 110.35 50.5348C109.005 50.8442 108.165 52.1858 108.474 53.5314L113.347 52.4111ZM109.331 64.2431C109.235 65.6205 110.274 66.8146 111.652 66.9103C113.029 67.006 114.223 65.967 114.319 64.5896L109.331 64.2431ZM111.6 76.534C112.113 75.2517 111.488 73.7972 110.206 73.2851C108.924 72.7731 107.469 73.3974 106.957 74.6797L111.6 76.534ZM101.764 83.9839C101.004 85.1365 101.322 86.6871 102.475 87.4473C103.628 88.2075 105.178 87.8893 105.938 86.7367L101.764 83.9839ZM99.4603 95.6919C100.317 94.609 100.133 93.0367 99.0505 92.1802C97.9677 91.3236 96.3954 91.507 95.5388 92.5899L99.4603 95.6919ZM88.5894 100.58C87.6312 101.574 87.6602 103.157 88.6543 104.115C89.6484 105.073 91.231 105.044 92.1893 104.05L88.5894 100.58ZM83.8312 111.569C84.9369 110.742 85.1629 109.175 84.3359 108.07C83.509 106.964 81.9423 106.738 80.8366 107.565L83.8312 111.569ZM72.6484 111.431C71.268 111.402 70.1255 112.498 70.0966 113.878C70.0676 115.259 71.1632 116.401 72.5436 116.43L72.6484 111.431ZM64.7782 105.925C64.8315 107.305 65.9932 108.38 67.3729 108.327C68.7526 108.273 69.8278 107.112 69.7744 105.732L64.7782 105.925ZM71.1124 95.6064C71.5406 94.2937 70.8235 92.8825 69.5109 92.4544C68.1982 92.0262 66.787 92.7432 66.3589 94.0559L71.1124 95.6064ZM72.0982 83.3178C71.2646 84.4185 71.4812 85.9865 72.5819 86.8201C73.6826 87.6536 75.2506 87.4371 76.0842 86.3363L72.0982 83.3178ZM83.6066 78.575C84.6676 77.6915 84.8115 76.1151 83.928 75.0541C83.0445 73.993 81.4682 73.8491 80.4071 74.7327L83.6066 78.575ZM90.0871 67.989C88.8956 68.6866 88.4952 70.218 89.1929 71.4095C89.8905 72.601 91.4219 73.0014 92.6134 72.3038L90.0871 67.989ZM102.518 67.3875C103.792 66.8567 104.395 65.3931 103.864 64.1185C103.334 62.8439 101.87 62.241 100.595 62.7719L102.518 67.3875ZM111.683 58.9724C110.35 59.3333 109.562 60.7063 109.923 62.039C110.284 63.3717 111.657 64.1595 112.99 63.7986L111.683 58.9724ZM123.796 61.7108C125.168 61.5605 126.159 60.326 126.009 58.9535C125.858 57.581 124.624 56.5902 123.251 56.7405L123.796 61.7108ZM135.266 56.8043C133.9 56.5998 132.627 57.5409 132.423 58.9064C132.218 60.2719 133.159 61.5446 134.525 61.7492L135.266 56.8043ZM145.895 65.8088C147.161 66.3615 148.634 65.7839 149.187 64.5187C149.74 63.2534 149.162 61.7797 147.897 61.2269L145.895 65.8088ZM160.825 67.926C159.663 67.1808 158.117 67.5189 157.372 68.6812C156.626 69.8435 156.964 71.3899 158.127 72.1351L160.825 67.926ZM168.265 80.8535C169.154 81.9098 170.731 82.0453 171.787 81.1562C172.844 80.267 172.979 78.6899 172.09 77.6336L168.265 80.8535ZM179.558 90.6205C179.087 89.3227 177.653 88.6526 176.355 89.1238C175.057 89.5951 174.387 91.0292 174.858 92.327L179.558 90.6205ZM177.554 105.487C177.656 106.864 178.855 107.897 180.232 107.795C181.609 107.693 182.642 106.494 182.54 105.117L177.554 105.487ZM182.217 119.715C182.363 118.342 181.368 117.111 179.995 116.965C178.622 116.82 177.39 117.815 177.245 119.188L182.217 119.715ZM4.7187 10.6666C6.10368 9.75891 8.23309 8.78879 10.929 7.94011L9.42769 3.17084C6.47091 4.10163 3.87652 5.2404 1.97786 6.4848L4.7187 10.6666ZM25.0044 5.65085C29.7647 5.5342 34.5861 6.09509 38.8748 7.61917L40.5491 2.90783C35.5408 1.12801 30.0805 0.524965 24.882 0.652348L25.0044 5.65085ZM49.6015 15.4011C50.8121 17.1043 51.8222 19.0946 52.5652 21.4203L57.328 19.8988C56.4345 17.1016 55.1978 14.6442 53.677 12.5044L49.6015 15.4011ZM52.5652 21.4203C53.1661 23.3015 53.3755 25.3794 53.2277 27.6053L58.2167 27.9367C58.3984 25.1998 58.1523 22.479 57.328 19.8988L52.5652 21.4203ZM49.3364 40.3111C47.2373 44.4115 44.4861 48.321 41.5428 51.5961L45.2617 54.9382C48.4753 51.3623 51.4788 47.0985 53.7871 42.5895L49.3364 40.3111ZM31.1841 59.7197C28.773 60.6951 27.5777 60.3424 26.9966 59.8186L23.649 63.5326C26.3585 65.9748 29.9731 65.6032 33.0591 64.3548L31.1841 59.7197ZM26.9966 59.8186C26.5184 59.3876 25.9727 58.3756 25.8227 56.4488L20.8378 56.8369C21.035 59.3703 21.8153 61.8798 23.649 63.5326L26.9966 59.8186ZM27.5778 46.687C28.6874 43.6867 30.3093 40.5235 32.4417 37.4846L28.3489 34.6126C25.9695 38.0035 24.147 41.549 22.8882 44.9527L27.5778 46.687ZM39.4431 29.7878C42.0094 27.6162 44.9247 25.7262 48.1857 24.2783L46.1566 19.7085C42.4285 21.3639 39.1133 23.517 36.2134 25.9709L39.4431 29.7878ZM58.1172 21.5201C59.7802 21.3085 61.5113 21.2029 63.311 21.2175L63.3514 16.2176C61.3297 16.2013 59.3743 16.3198 57.4861 16.56L58.1172 21.5201ZM63.311 21.2175C65.2138 21.2328 67.0609 21.3319 68.8516 21.5087L69.3428 16.5329C67.3993 16.341 65.4017 16.2342 63.3514 16.2176L63.311 21.2175ZM79.6177 23.6688C83.2619 24.8094 86.5894 26.3129 89.5896 28.1052L92.1539 23.8129C88.8118 21.8162 85.1243 20.1531 81.1111 18.8971L79.6177 23.6688ZM98.1256 34.8031C100.719 37.4475 102.884 40.3688 104.601 43.4651L108.974 41.0402C107.039 37.5514 104.604 34.2679 101.695 31.3018L98.1256 34.8031ZM108.474 53.5314C109.287 57.0656 109.579 60.6754 109.331 64.2431L114.319 64.5896C114.602 60.5182 114.267 56.4141 113.347 52.4111L108.474 53.5314ZM106.957 74.6797C106.301 76.3237 105.51 77.9322 104.582 79.4918L108.879 82.048C109.942 80.2624 110.848 78.4191 111.6 76.534L106.957 74.6797ZM104.582 79.4918C103.688 80.9945 102.746 82.496 101.764 83.9839L105.938 86.7367C106.96 85.1871 107.944 83.62 108.879 82.048L104.582 79.4918ZM95.5388 92.5899C93.262 95.4681 90.9143 98.1679 88.5894 100.58L92.1893 104.05C94.6377 101.51 97.0921 98.6856 99.4603 95.6919L95.5388 92.5899ZM80.8366 107.565C77.1651 110.311 74.365 111.467 72.6484 111.431L72.5436 116.43C76.0612 116.504 80.0425 114.402 83.8312 111.569L80.8366 107.565ZM69.7744 105.732C69.72 104.325 69.7886 102.647 70.009 100.669L65.0398 100.115C64.7986 102.28 64.712 104.214 64.7782 105.925L69.7744 105.732ZM70.009 100.669C70.2013 98.9435 70.5746 97.2553 71.1124 95.6064L66.3589 94.0559C65.72 96.0146 65.2714 98.0365 65.0398 100.115L70.009 100.669ZM76.0842 86.3363C78.1743 83.5764 80.7199 80.9787 83.6066 78.575L80.4071 74.7327C77.2752 77.3406 74.4527 80.2086 72.0982 83.3178L76.0842 86.3363ZM92.6134 72.3038C95.779 70.4503 99.1165 68.8041 102.518 67.3875L100.595 62.7719C96.9992 64.2696 93.4587 66.0148 90.0871 67.989L92.6134 72.3038ZM112.99 63.7986C116.719 62.7887 120.369 62.086 123.796 61.7108L123.251 56.7405C119.542 57.1467 115.636 57.9018 111.683 58.9724L112.99 63.7986ZM134.525 61.7492C136.395 62.0293 138.028 62.4692 139.401 63.0507L141.351 58.447C139.514 57.6682 137.459 57.1329 135.266 56.8043L134.525 61.7492ZM139.401 63.0507C141.508 63.9436 143.665 64.8342 145.895 65.8088L147.897 61.2269C145.634 60.2383 143.402 59.316 141.351 58.447L139.401 63.0507ZM158.127 72.1351C161.836 74.5135 165.307 77.3398 168.265 80.8535L172.09 77.6336C168.739 73.6521 164.855 70.5098 160.825 67.926L158.127 72.1351ZM174.858 92.327C176.229 96.1033 177.179 100.449 177.554 105.487L182.54 105.117C182.135 99.6631 181.099 94.8637 179.558 90.6205L174.858 92.327ZM177.245 119.188C177.012 121.383 176.692 123.676 176.278 126.072L181.206 126.922C181.636 124.426 181.972 122.025 182.217 119.715L177.245 119.188Z" fill="#FBB418"/>
</svg>
